# xmcd CD database file
#
# Track frame offsets:
#	150
#	7842
#	21663
#	39663
#	48157
#	67824
#	80747
#	94617
#	106008
#	119754
#	133357
#	146901
#	160757
#	173481
#	182457
#	193909
#	204642
#	215928
#	225280
#	236509
#	247136
#	256311
#	273370
#	289753
#	311428
#
# Disc length: 4333 seconds
#
# Revision: 0
# Processed by: cddbd v1.5.1PL0 Copyright (c) Steve Scherf et al.
# Submitted via: CDex 1.51
#
DISCID=6a10eb19
DTITLE=Various  - Columbia Country Classics
DYEAR=1900
DGENRE=Country
TTITLE0=Fess Parker - Ballad of Davey Crocket
TTITLE1=Johnny Cash - Don't Take Your Guns To Town
TTITLE2=Marty Robbins - Big Iron
TTITLE3=Johnny Western - The Ballad of Paladin
TTITLE4=Marty Robbins - El Paso
TTITLE5=Billy Walker - Cross The Brazos At Waco
TTITLE6=Lefty Frizzell - Long Black Veil
TTITLE7=Stonewall Jackson - Life To Go
TTITLE8=Jimmy Dean - Big Bad Jon
TTITLE9=Johnny Cash - Tennessee Flat Top Box
TTITLE10=Claude King - Wolverton Mountain
TTITLE11=Lefty Frizzell - Saginaw Michigan
TTITLE12=Johnny Horton - North to Alaska
TTITLE13=Hawkshaw Hawkins - Twenty Miles From Shore
TTITLE14=Johnny Horton - The Battle of New Orleans
TTITLE15=Hawkshaw Hawkins - Soldier's Joy
TTITLE16=Stonewall Jackson - Waterloo
TTITLE17=Lester Flatt, Earl Scruggs and The Foggy Mountain Boys - The Ballad of Jed Clampett
TTITLE18=Little Jimmy Dickens -  - May The Bird of Paradise Fly Up Your Nose
TTITLE19=The Statler Brothers - Flowers on the Wall
TTITLE20=Tommy Collins - If You Can't Bite Don't Growl
TTITLE21=Johnny Cash - A Boy Named Sue
TTITLE22=The Charlie Daniels Band - The Devil Went Down To Georgia
TTITLE23=Merle Haggard and Willie Nelson - Pancho and Lefty
TTITLE24=Waylon Jennings, Willie Nelson, Johnny Cash, Kris Kristofferson - Highwayman
EXTD=
EXTT0=
EXTT1=
EXTT2=
EXTT3=
EXTT4=
EXTT5=
EXTT6=
EXTT7=
EXTT8=
EXTT9=
EXTT10=
EXTT11=
EXTT12=
EXTT13=
EXTT14=
EXTT15=
EXTT16=
EXTT17=
EXTT18=
EXTT19=
EXTT20=
EXTT21=
EXTT22=
EXTT23=
EXTT24=
PLAYORDER=
